<?xml version="1.0" encoding="UTF-8"?>
<svg id="Capa_2" data-name="Capa 2" xmlns="http://www.w3.org/2000/svg" viewBox="0 0 512.43 525.45">
  <defs>
    <style>
      .cls-1 {
        fill: #fff;
      }

      .cls-2 {
        fill: #014872;
      }

      .cls-3 {
        fill: #fbd1bf;
      }

      .cls-4 {
        fill: #026a95;
      }

      .cls-5 {
        fill: #221616;
      }

      .cls-6 {
        fill: #b62933;
      }

      .cls-7 {
        fill: #dcb19b;
      }

      .cls-8 {
        fill: #8b181c;
      }

      .cls-9 {
        fill: #6a1415;
      }

      .cls-10 {
        fill: #095770;
      }

      .cls-11 {
        fill: #362836;
      }
    </style>
  </defs>
  <rect class="cls-4" width="512.43" height="525.45"/>
  <g>
    <g>
      <path class="cls-2" d="m132.58,472.64c1.41,0,2.58.65,3.51,1.96.45.73.67,1.49.67,2.28,0,1.64-.95,3.01-2.84,4.1-5.86,4.02-8.88,6.11-9.06,6.27v.03c.89.54,4.14,2.39,9.73,5.55,1.22.97,1.82,2.14,1.82,3.51,0,1.47-.7,2.66-2.09,3.59-.7.38-1.4.56-2.12.56-.91,0-2.03-.43-3.35-1.29-8.24-4.63-13.1-7.38-14.58-8.26-1.07-.98-1.61-2.1-1.61-3.35,0-1.66.92-3.02,2.76-4.08,10.06-6.97,15.16-10.45,15.28-10.45.64-.29,1.27-.43,1.88-.43Z"/>
      <path class="cls-2" d="m149.25,472.64c1.54,0,2.78.78,3.73,2.33.29.68.43,1.32.43,1.93,0,.41-.32,1.92-.97,4.53l-7.53,30.88c-.14.5-.62,1.13-1.42,1.88-.82.59-1.68.88-2.57.88-1.54,0-2.78-.77-3.73-2.31-.29-.7-.43-1.35-.43-1.96,0-.45.38-2.16,1.15-5.15,4.61-19.05,7.08-29.18,7.4-30.37.16-.46.6-1.04,1.31-1.72.8-.63,1.68-.94,2.63-.94Z"/>
      <path class="cls-2" d="m157.83,487.23h.24c.88,0,2.06.48,3.54,1.45,8.99,5.04,13.77,7.76,14.34,8.15,1.04.95,1.55,1.99,1.55,3.14v.27c0,1.64-.98,3.02-2.95,4.13-9.56,6.61-14.56,10.03-14.99,10.24-.61.32-1.21.48-1.8.48h-.32c-1.55,0-2.79-.83-3.7-2.49-.23-.59-.35-1.11-.35-1.56v-.24c0-1.59.97-2.96,2.9-4.1,5.77-3.97,8.77-6.04,9.01-6.22-.04-.05-2.21-1.3-6.51-3.73-2.16-1.16-3.42-1.93-3.78-2.31-.84-.91-1.26-1.88-1.26-2.92v-.16c0-1.47.74-2.68,2.23-3.65.66-.32,1.28-.48,1.85-.48Z"/>
    </g>
    <g>
      <path class="cls-2" d="m23.81,472.64c1.41,0,2.58.65,3.51,1.96.45.73.67,1.49.67,2.28,0,1.64-.95,3.01-2.84,4.1-5.86,4.02-8.88,6.11-9.06,6.27v.03c.89.54,4.14,2.39,9.73,5.55,1.22.97,1.82,2.14,1.82,3.51,0,1.47-.7,2.66-2.09,3.59-.7.38-1.4.56-2.12.56-.91,0-2.03-.43-3.35-1.29-8.24-4.63-13.1-7.38-14.58-8.26-1.07-.98-1.61-2.1-1.61-3.35,0-1.66.92-3.02,2.76-4.08,10.06-6.97,15.16-10.45,15.28-10.45.64-.29,1.27-.43,1.88-.43Z"/>
      <path class="cls-2" d="m40.49,472.64c1.54,0,2.78.78,3.73,2.33.29.68.43,1.32.43,1.93,0,.41-.32,1.92-.97,4.53l-7.53,30.88c-.14.5-.62,1.13-1.42,1.88-.82.59-1.68.88-2.57.88-1.54,0-2.78-.77-3.73-2.31-.29-.7-.43-1.35-.43-1.96,0-.45.38-2.16,1.15-5.15,4.61-19.05,7.08-29.18,7.4-30.37.16-.46.6-1.04,1.31-1.72.8-.63,1.68-.94,2.63-.94Z"/>
      <path class="cls-2" d="m49.07,487.23h.24c.88,0,2.06.48,3.54,1.45,8.99,5.04,13.77,7.76,14.34,8.15,1.04.95,1.55,1.99,1.55,3.14v.27c0,1.64-.98,3.02-2.95,4.13-9.56,6.61-14.56,10.03-14.99,10.24-.61.32-1.21.48-1.8.48h-.32c-1.55,0-2.79-.83-3.7-2.49-.23-.59-.35-1.11-.35-1.56v-.24c0-1.59.97-2.96,2.9-4.1,5.77-3.97,8.77-6.04,9.01-6.22-.04-.05-2.21-1.3-6.51-3.73-2.16-1.16-3.42-1.93-3.78-2.31-.84-.91-1.26-1.88-1.26-2.92v-.16c0-1.47.74-2.68,2.23-3.65.66-.32,1.28-.48,1.85-.48Z"/>
    </g>
    <g>
      <path class="cls-2" d="m246.26,472.64c1.41,0,2.58.65,3.51,1.96.45.73.67,1.49.67,2.28,0,1.64-.95,3.01-2.84,4.1-5.86,4.02-8.88,6.11-9.06,6.27v.03c.89.54,4.14,2.39,9.73,5.55,1.22.97,1.82,2.14,1.82,3.51,0,1.47-.7,2.66-2.09,3.59-.7.38-1.4.56-2.12.56-.91,0-2.03-.43-3.35-1.29-8.24-4.63-13.1-7.38-14.58-8.26-1.07-.98-1.61-2.1-1.61-3.35,0-1.66.92-3.02,2.76-4.08,10.06-6.97,15.16-10.45,15.28-10.45.64-.29,1.27-.43,1.88-.43Z"/>
      <path class="cls-2" d="m262.93,472.64c1.54,0,2.78.78,3.73,2.33.29.68.43,1.32.43,1.93,0,.41-.32,1.92-.97,4.53l-7.53,30.88c-.14.5-.62,1.13-1.42,1.88-.82.59-1.68.88-2.57.88-1.54,0-2.78-.77-3.73-2.31-.29-.7-.43-1.35-.43-1.96,0-.45.38-2.16,1.15-5.15,4.61-19.05,7.08-29.18,7.4-30.37.16-.46.6-1.04,1.31-1.72.8-.63,1.68-.94,2.63-.94Z"/>
      <path class="cls-2" d="m271.51,487.23h.24c.88,0,2.06.48,3.54,1.45,8.99,5.04,13.77,7.76,14.34,8.15,1.04.95,1.55,1.99,1.55,3.14v.27c0,1.64-.98,3.02-2.95,4.13-9.56,6.61-14.56,10.03-14.99,10.24-.61.32-1.21.48-1.8.48h-.32c-1.55,0-2.79-.83-3.7-2.49-.23-.59-.35-1.11-.35-1.56v-.24c0-1.59.97-2.96,2.9-4.1,5.77-3.97,8.77-6.04,9.01-6.22-.04-.05-2.21-1.3-6.51-3.73-2.16-1.16-3.42-1.93-3.78-2.31-.84-.91-1.26-1.88-1.26-2.92v-.16c0-1.47.74-2.68,2.23-3.65.66-.32,1.28-.48,1.85-.48Z"/>
    </g>
    <g>
      <path class="cls-2" d="m462.18,472.64c1.41,0,2.58.65,3.51,1.96.45.73.67,1.49.67,2.28,0,1.64-.95,3.01-2.84,4.1-5.86,4.02-8.88,6.11-9.06,6.27v.03c.89.54,4.14,2.39,9.73,5.55,1.22.97,1.82,2.14,1.82,3.51,0,1.47-.7,2.66-2.09,3.59-.7.38-1.4.56-2.12.56-.91,0-2.03-.43-3.35-1.29-8.24-4.63-13.1-7.38-14.58-8.26-1.07-.98-1.61-2.1-1.61-3.35,0-1.66.92-3.02,2.76-4.08,10.06-6.97,15.16-10.45,15.28-10.45.64-.29,1.27-.43,1.88-.43Z"/>
      <path class="cls-2" d="m478.85,472.64c1.54,0,2.78.78,3.73,2.33.29.68.43,1.32.43,1.93,0,.41-.32,1.92-.97,4.53l-7.53,30.88c-.14.5-.62,1.13-1.42,1.88-.82.59-1.68.88-2.57.88-1.54,0-2.78-.77-3.73-2.31-.29-.7-.43-1.35-.43-1.96,0-.45.38-2.16,1.15-5.15,4.61-19.05,7.08-29.18,7.4-30.37.16-.46.6-1.04,1.31-1.72.8-.63,1.68-.94,2.63-.94Z"/>
      <path class="cls-2" d="m487.43,487.23h.24c.88,0,2.06.48,3.54,1.45,8.99,5.04,13.77,7.76,14.34,8.15,1.04.95,1.55,1.99,1.55,3.14v.27c0,1.64-.98,3.02-2.95,4.13-9.56,6.61-14.56,10.03-14.99,10.24-.61.32-1.21.48-1.8.48h-.32c-1.55,0-2.79-.83-3.7-2.49-.23-.59-.35-1.11-.35-1.56v-.24c0-1.59.97-2.96,2.9-4.1,5.77-3.97,8.77-6.04,9.01-6.22-.04-.05-2.21-1.3-6.51-3.73-2.16-1.16-3.42-1.93-3.78-2.31-.84-.91-1.26-1.88-1.26-2.92v-.16c0-1.47.74-2.68,2.23-3.65.66-.32,1.28-.48,1.85-.48Z"/>
    </g>
    <g>
      <path class="cls-2" d="m353.42,472.64c1.41,0,2.58.65,3.51,1.96.45.73.67,1.49.67,2.28,0,1.64-.95,3.01-2.84,4.1-5.86,4.02-8.88,6.11-9.06,6.27v.03c.89.54,4.14,2.39,9.73,5.55,1.22.97,1.82,2.14,1.82,3.51,0,1.47-.7,2.66-2.09,3.59-.7.38-1.4.56-2.12.56-.91,0-2.03-.43-3.35-1.29-8.24-4.63-13.1-7.38-14.58-8.26-1.07-.98-1.61-2.1-1.61-3.35,0-1.66.92-3.02,2.76-4.08,10.06-6.97,15.16-10.45,15.28-10.45.64-.29,1.27-.43,1.88-.43Z"/>
      <path class="cls-2" d="m370.09,472.64c1.54,0,2.78.78,3.73,2.33.29.68.43,1.32.43,1.93,0,.41-.32,1.92-.97,4.53l-7.53,30.88c-.14.5-.62,1.13-1.42,1.88-.82.59-1.68.88-2.57.88-1.54,0-2.78-.77-3.73-2.31-.29-.7-.43-1.35-.43-1.96,0-.45.38-2.16,1.15-5.15,4.61-19.05,7.08-29.18,7.4-30.37.16-.46.6-1.04,1.31-1.72.8-.63,1.68-.94,2.63-.94Z"/>
      <path class="cls-2" d="m378.67,487.23h.24c.88,0,2.06.48,3.54,1.45,8.99,5.04,13.77,7.76,14.34,8.15,1.04.95,1.55,1.99,1.55,3.14v.27c0,1.64-.98,3.02-2.95,4.13-9.56,6.61-14.56,10.03-14.99,10.24-.61.32-1.21.48-1.8.48h-.32c-1.55,0-2.79-.83-3.7-2.49-.23-.59-.35-1.11-.35-1.56v-.24c0-1.59.97-2.96,2.9-4.1,5.77-3.97,8.77-6.04,9.01-6.22-.04-.05-2.21-1.3-6.51-3.73-2.16-1.16-3.42-1.93-3.78-2.31-.84-.91-1.26-1.88-1.26-2.92v-.16c0-1.47.74-2.68,2.23-3.65.66-.32,1.28-.48,1.85-.48Z"/>
    </g>
    <g>
      <path class="cls-2" d="m178.28,408.83c1.41,0,2.58.65,3.51,1.96.45.73.67,1.49.67,2.28,0,1.64-.95,3.01-2.84,4.1-5.86,4.02-8.88,6.11-9.06,6.27v.03c.89.54,4.14,2.39,9.73,5.55,1.22.97,1.82,2.14,1.82,3.51,0,1.47-.7,2.66-2.09,3.59-.7.38-1.4.56-2.12.56-.91,0-2.03-.43-3.35-1.29-8.24-4.63-13.1-7.38-14.58-8.26-1.07-.98-1.61-2.1-1.61-3.35,0-1.66.92-3.02,2.76-4.08,10.06-6.97,15.16-10.45,15.28-10.45.64-.29,1.27-.43,1.88-.43Z"/>
      <path class="cls-2" d="m194.96,408.83c1.54,0,2.78.78,3.73,2.33.29.68.43,1.32.43,1.93,0,.41-.32,1.92-.97,4.53l-7.53,30.88c-.14.5-.62,1.13-1.42,1.88-.82.59-1.68.88-2.57.88-1.54,0-2.78-.77-3.73-2.31-.29-.7-.43-1.35-.43-1.96,0-.45.38-2.16,1.15-5.15,4.61-19.05,7.08-29.18,7.4-30.37.16-.46.6-1.04,1.31-1.72.8-.63,1.68-.94,2.63-.94Z"/>
      <path class="cls-2" d="m203.54,423.42h.24c.88,0,2.06.48,3.54,1.45,8.99,5.04,13.77,7.76,14.34,8.15,1.04.95,1.55,1.99,1.55,3.14v.27c0,1.64-.98,3.02-2.95,4.13-9.56,6.61-14.56,10.03-14.99,10.24-.61.32-1.21.48-1.8.48h-.32c-1.55,0-2.79-.83-3.7-2.49-.23-.59-.35-1.11-.35-1.56v-.24c0-1.59.97-2.96,2.9-4.1,5.77-3.97,8.77-6.04,9.01-6.22-.04-.05-2.21-1.3-6.51-3.73-2.16-1.16-3.42-1.93-3.78-2.31-.84-.91-1.26-1.88-1.26-2.92v-.16c0-1.47.74-2.68,2.23-3.65.66-.32,1.28-.48,1.85-.48Z"/>
    </g>
    <g>
      <path class="cls-2" d="m69.52,408.83c1.41,0,2.58.65,3.51,1.96.45.73.67,1.49.67,2.28,0,1.64-.95,3.01-2.84,4.1-5.86,4.02-8.88,6.11-9.06,6.27v.03c.89.54,4.14,2.39,9.73,5.55,1.22.97,1.82,2.14,1.82,3.51,0,1.47-.7,2.66-2.09,3.59-.7.38-1.4.56-2.12.56-.91,0-2.03-.43-3.35-1.29-8.24-4.63-13.1-7.38-14.58-8.26-1.07-.98-1.61-2.1-1.61-3.35,0-1.66.92-3.02,2.76-4.08,10.06-6.97,15.16-10.45,15.28-10.45.64-.29,1.27-.43,1.88-.43Z"/>
      <path class="cls-2" d="m86.2,408.83c1.54,0,2.78.78,3.73,2.33.29.68.43,1.32.43,1.93,0,.41-.32,1.92-.97,4.53l-7.53,30.88c-.14.5-.62,1.13-1.42,1.88-.82.59-1.68.88-2.57.88-1.54,0-2.78-.77-3.73-2.31-.29-.7-.43-1.35-.43-1.96,0-.45.38-2.16,1.15-5.15,4.61-19.05,7.08-29.18,7.4-30.37.16-.46.6-1.04,1.31-1.72.8-.63,1.68-.94,2.63-.94Z"/>
      <path class="cls-2" d="m94.78,423.42h.24c.88,0,2.06.48,3.54,1.45,8.99,5.04,13.77,7.76,14.34,8.15,1.04.95,1.55,1.99,1.55,3.14v.27c0,1.64-.98,3.02-2.95,4.13-9.56,6.61-14.56,10.03-14.99,10.24-.61.32-1.21.48-1.8.48h-.32c-1.55,0-2.79-.83-3.7-2.49-.23-.59-.35-1.11-.35-1.56v-.24c0-1.59.97-2.96,2.9-4.1,5.77-3.97,8.77-6.04,9.01-6.22-.04-.05-2.21-1.3-6.51-3.73-2.16-1.16-3.42-1.93-3.78-2.31-.84-.91-1.26-1.88-1.26-2.92v-.16c0-1.47.74-2.68,2.23-3.65.66-.32,1.28-.48,1.85-.48Z"/>
    </g>
    <g>
      <path class="cls-2" d="m291.97,408.83c1.41,0,2.58.65,3.51,1.96.45.73.67,1.49.67,2.28,0,1.64-.95,3.01-2.84,4.1-5.86,4.02-8.88,6.11-9.06,6.27v.03c.89.54,4.14,2.39,9.73,5.55,1.22.97,1.82,2.14,1.82,3.51,0,1.47-.7,2.66-2.09,3.59-.7.38-1.4.56-2.12.56-.91,0-2.03-.43-3.35-1.29-8.24-4.63-13.1-7.38-14.58-8.26-1.07-.98-1.61-2.1-1.61-3.35,0-1.66.92-3.02,2.76-4.08,10.06-6.97,15.16-10.45,15.28-10.45.64-.29,1.27-.43,1.88-.43Z"/>
      <path class="cls-2" d="m308.64,408.83c1.54,0,2.78.78,3.73,2.33.29.68.43,1.32.43,1.93,0,.41-.32,1.92-.97,4.53l-7.53,30.88c-.14.5-.62,1.13-1.42,1.88-.82.59-1.68.88-2.57.88-1.54,0-2.78-.77-3.73-2.31-.29-.7-.43-1.35-.43-1.96,0-.45.38-2.16,1.15-5.15,4.61-19.05,7.08-29.18,7.4-30.37.16-.46.6-1.04,1.31-1.72.8-.63,1.68-.94,2.63-.94Z"/>
      <path class="cls-2" d="m317.22,423.42h.24c.88,0,2.06.48,3.54,1.45,8.99,5.04,13.77,7.76,14.34,8.15,1.04.95,1.55,1.99,1.55,3.14v.27c0,1.64-.98,3.02-2.95,4.13-9.56,6.61-14.56,10.03-14.99,10.24-.61.32-1.21.48-1.8.48h-.32c-1.55,0-2.79-.83-3.7-2.49-.23-.59-.35-1.11-.35-1.56v-.24c0-1.59.97-2.96,2.9-4.1,5.77-3.97,8.77-6.04,9.01-6.22-.04-.05-2.21-1.3-6.51-3.73-2.16-1.16-3.42-1.93-3.78-2.31-.84-.91-1.26-1.88-1.26-2.92v-.16c0-1.47.74-2.68,2.23-3.65.66-.32,1.28-.48,1.85-.48Z"/>
    </g>
    <g>
      <path class="cls-2" d="m399.13,408.83c1.41,0,2.58.65,3.51,1.96.45.73.67,1.49.67,2.28,0,1.64-.95,3.01-2.84,4.1-5.86,4.02-8.88,6.11-9.06,6.27v.03c.89.54,4.14,2.39,9.73,5.55,1.22.97,1.82,2.14,1.82,3.51,0,1.47-.7,2.66-2.09,3.59-.7.38-1.4.56-2.12.56-.91,0-2.03-.43-3.35-1.29-8.24-4.63-13.1-7.38-14.58-8.26-1.07-.98-1.61-2.1-1.61-3.35,0-1.66.92-3.02,2.76-4.08,10.06-6.97,15.16-10.45,15.28-10.45.64-.29,1.27-.43,1.88-.43Z"/>
      <path class="cls-2" d="m415.8,408.83c1.54,0,2.78.78,3.73,2.33.29.68.43,1.32.43,1.93,0,.41-.32,1.92-.97,4.53l-7.53,30.88c-.14.5-.62,1.13-1.42,1.88-.82.59-1.68.88-2.57.88-1.54,0-2.78-.77-3.73-2.31-.29-.7-.43-1.35-.43-1.96,0-.45.38-2.16,1.15-5.15,4.61-19.05,7.08-29.18,7.4-30.37.16-.46.6-1.04,1.31-1.72.8-.63,1.68-.94,2.63-.94Z"/>
      <path class="cls-2" d="m424.38,423.42h.24c.88,0,2.06.48,3.54,1.45,8.99,5.04,13.77,7.76,14.34,8.15,1.04.95,1.55,1.99,1.55,3.14v.27c0,1.64-.98,3.02-2.95,4.13-9.56,6.61-14.56,10.03-14.99,10.24-.61.32-1.21.48-1.8.48h-.32c-1.55,0-2.79-.83-3.7-2.49-.23-.59-.35-1.11-.35-1.56v-.24c0-1.59.97-2.96,2.9-4.1,5.77-3.97,8.77-6.04,9.01-6.22-.04-.05-2.21-1.3-6.51-3.73-2.16-1.16-3.42-1.93-3.78-2.31-.84-.91-1.26-1.88-1.26-2.92v-.16c0-1.47.74-2.68,2.23-3.65.66-.32,1.28-.48,1.85-.48Z"/>
    </g>
    <g>
      <path class="cls-2" d="m132.58,334.27c1.41,0,2.58.65,3.51,1.96.45.73.67,1.49.67,2.28,0,1.64-.95,3.01-2.84,4.1-5.86,4.02-8.88,6.11-9.06,6.27v.03c.89.54,4.14,2.39,9.73,5.55,1.22.97,1.82,2.14,1.82,3.51,0,1.47-.7,2.66-2.09,3.59-.7.38-1.4.56-2.12.56-.91,0-2.03-.43-3.35-1.29-8.24-4.63-13.1-7.38-14.58-8.26-1.07-.98-1.61-2.1-1.61-3.35,0-1.66.92-3.02,2.76-4.08,10.06-6.97,15.16-10.45,15.28-10.45.64-.29,1.27-.43,1.88-.43Z"/>
      <path class="cls-2" d="m149.25,334.27c1.54,0,2.78.78,3.73,2.33.29.68.43,1.32.43,1.93,0,.41-.32,1.92-.97,4.53l-7.53,30.88c-.14.5-.62,1.13-1.42,1.88-.82.59-1.68.88-2.57.88-1.54,0-2.78-.77-3.73-2.31-.29-.7-.43-1.35-.43-1.96,0-.45.38-2.16,1.15-5.15,4.61-19.05,7.08-29.18,7.4-30.37.16-.46.6-1.04,1.31-1.72.8-.63,1.68-.94,2.63-.94Z"/>
      <path class="cls-2" d="m157.83,348.85h.24c.88,0,2.06.48,3.54,1.45,8.99,5.04,13.77,7.76,14.34,8.15,1.04.95,1.55,1.99,1.55,3.14v.27c0,1.64-.98,3.02-2.95,4.13-9.56,6.61-14.56,10.03-14.99,10.24-.61.32-1.21.48-1.8.48h-.32c-1.55,0-2.79-.83-3.7-2.49-.23-.59-.35-1.11-.35-1.56v-.24c0-1.59.97-2.96,2.9-4.1,5.77-3.97,8.77-6.04,9.01-6.22-.04-.05-2.21-1.3-6.51-3.73-2.16-1.16-3.42-1.93-3.78-2.31-.84-.91-1.26-1.88-1.26-2.92v-.16c0-1.47.74-2.68,2.23-3.65.66-.32,1.28-.48,1.85-.48Z"/>
    </g>
    <g>
      <path class="cls-2" d="m23.81,334.27c1.41,0,2.58.65,3.51,1.96.45.73.67,1.49.67,2.28,0,1.64-.95,3.01-2.84,4.1-5.86,4.02-8.88,6.11-9.06,6.27v.03c.89.54,4.14,2.39,9.73,5.55,1.22.97,1.82,2.14,1.82,3.51,0,1.47-.7,2.66-2.09,3.59-.7.38-1.4.56-2.12.56-.91,0-2.03-.43-3.35-1.29-8.24-4.63-13.1-7.38-14.58-8.26-1.07-.98-1.61-2.1-1.61-3.35,0-1.66.92-3.02,2.76-4.08,10.06-6.97,15.16-10.45,15.28-10.45.64-.29,1.27-.43,1.88-.43Z"/>
      <path class="cls-2" d="m40.49,334.27c1.54,0,2.78.78,3.73,2.33.29.68.43,1.32.43,1.93,0,.41-.32,1.92-.97,4.53l-7.53,30.88c-.14.5-.62,1.13-1.42,1.88-.82.59-1.68.88-2.57.88-1.54,0-2.78-.77-3.73-2.31-.29-.7-.43-1.35-.43-1.96,0-.45.38-2.16,1.15-5.15,4.61-19.05,7.08-29.18,7.4-30.37.16-.46.6-1.04,1.31-1.72.8-.63,1.68-.94,2.63-.94Z"/>
      <path class="cls-2" d="m49.07,348.85h.24c.88,0,2.06.48,3.54,1.45,8.99,5.04,13.77,7.76,14.34,8.15,1.04.95,1.55,1.99,1.55,3.14v.27c0,1.64-.98,3.02-2.95,4.13-9.56,6.61-14.56,10.03-14.99,10.24-.61.32-1.21.48-1.8.48h-.32c-1.55,0-2.79-.83-3.7-2.49-.23-.59-.35-1.11-.35-1.56v-.24c0-1.59.97-2.96,2.9-4.1,5.77-3.97,8.77-6.04,9.01-6.22-.04-.05-2.21-1.3-6.51-3.73-2.16-1.16-3.42-1.93-3.78-2.31-.84-.91-1.26-1.88-1.26-2.92v-.16c0-1.47.74-2.68,2.23-3.65.66-.32,1.28-.48,1.85-.48Z"/>
    </g>
    <g>
      <path class="cls-2" d="m246.26,334.27c1.41,0,2.58.65,3.51,1.96.45.73.67,1.49.67,2.28,0,1.64-.95,3.01-2.84,4.1-5.86,4.02-8.88,6.11-9.06,6.27v.03c.89.54,4.14,2.39,9.73,5.55,1.22.97,1.82,2.14,1.82,3.51,0,1.47-.7,2.66-2.09,3.59-.7.38-1.4.56-2.12.56-.91,0-2.03-.43-3.35-1.29-8.24-4.63-13.1-7.38-14.58-8.26-1.07-.98-1.61-2.1-1.61-3.35,0-1.66.92-3.02,2.76-4.08,10.06-6.97,15.16-10.45,15.28-10.45.64-.29,1.27-.43,1.88-.43Z"/>
      <path class="cls-2" d="m262.93,334.27c1.54,0,2.78.78,3.73,2.33.29.68.43,1.32.43,1.93,0,.41-.32,1.92-.97,4.53l-7.53,30.88c-.14.5-.62,1.13-1.42,1.88-.82.59-1.68.88-2.57.88-1.54,0-2.78-.77-3.73-2.31-.29-.7-.43-1.35-.43-1.96,0-.45.38-2.16,1.15-5.15,4.61-19.05,7.08-29.18,7.4-30.37.16-.46.6-1.04,1.31-1.72.8-.63,1.68-.94,2.63-.94Z"/>
      <path class="cls-2" d="m271.51,348.85h.24c.88,0,2.06.48,3.54,1.45,8.99,5.04,13.77,7.76,14.34,8.15,1.04.95,1.55,1.99,1.55,3.14v.27c0,1.64-.98,3.02-2.95,4.13-9.56,6.61-14.56,10.03-14.99,10.24-.61.32-1.21.48-1.8.48h-.32c-1.55,0-2.79-.83-3.7-2.49-.23-.59-.35-1.11-.35-1.56v-.24c0-1.59.97-2.96,2.9-4.1,5.77-3.97,8.77-6.04,9.01-6.22-.04-.05-2.21-1.3-6.51-3.73-2.16-1.16-3.42-1.93-3.78-2.31-.84-.91-1.26-1.88-1.26-2.92v-.16c0-1.47.74-2.68,2.23-3.65.66-.32,1.28-.48,1.85-.48Z"/>
    </g>
    <g>
      <path class="cls-2" d="m462.18,334.27c1.41,0,2.58.65,3.51,1.96.45.73.67,1.49.67,2.28,0,1.64-.95,3.01-2.84,4.1-5.86,4.02-8.88,6.11-9.06,6.27v.03c.89.54,4.14,2.39,9.73,5.55,1.22.97,1.82,2.14,1.82,3.51,0,1.47-.7,2.66-2.09,3.59-.7.38-1.4.56-2.12.56-.91,0-2.03-.43-3.35-1.29-8.24-4.63-13.1-7.38-14.58-8.26-1.07-.98-1.61-2.1-1.61-3.35,0-1.66.92-3.02,2.76-4.08,10.06-6.97,15.16-10.45,15.28-10.45.64-.29,1.27-.43,1.88-.43Z"/>
      <path class="cls-2" d="m478.85,334.27c1.54,0,2.78.78,3.73,2.33.29.68.43,1.32.43,1.93,0,.41-.32,1.92-.97,4.53l-7.53,30.88c-.14.5-.62,1.13-1.42,1.88-.82.59-1.68.88-2.57.88-1.54,0-2.78-.77-3.73-2.31-.29-.7-.43-1.35-.43-1.96,0-.45.38-2.16,1.15-5.15,4.61-19.05,7.08-29.18,7.4-30.37.16-.46.6-1.04,1.31-1.72.8-.63,1.68-.94,2.63-.94Z"/>
      <path class="cls-2" d="m487.43,348.85h.24c.88,0,2.06.48,3.54,1.45,8.99,5.04,13.77,7.76,14.34,8.15,1.04.95,1.55,1.99,1.55,3.14v.27c0,1.64-.98,3.02-2.95,4.13-9.56,6.61-14.56,10.03-14.99,10.24-.61.32-1.21.48-1.8.48h-.32c-1.55,0-2.79-.83-3.7-2.49-.23-.59-.35-1.11-.35-1.56v-.24c0-1.59.97-2.96,2.9-4.1,5.77-3.97,8.77-6.04,9.01-6.22-.04-.05-2.21-1.3-6.51-3.73-2.16-1.16-3.42-1.93-3.78-2.31-.84-.91-1.26-1.88-1.26-2.92v-.16c0-1.47.74-2.68,2.23-3.65.66-.32,1.28-.48,1.85-.48Z"/>
    </g>
    <g>
      <path class="cls-2" d="m353.42,334.27c1.41,0,2.58.65,3.51,1.96.45.73.67,1.49.67,2.28,0,1.64-.95,3.01-2.84,4.1-5.86,4.02-8.88,6.11-9.06,6.27v.03c.89.54,4.14,2.39,9.73,5.55,1.22.97,1.82,2.14,1.82,3.51,0,1.47-.7,2.66-2.09,3.59-.7.38-1.4.56-2.12.56-.91,0-2.03-.43-3.35-1.29-8.24-4.63-13.1-7.38-14.58-8.26-1.07-.98-1.61-2.1-1.61-3.35,0-1.66.92-3.02,2.76-4.08,10.06-6.97,15.16-10.45,15.28-10.45.64-.29,1.27-.43,1.88-.43Z"/>
      <path class="cls-2" d="m370.09,334.27c1.54,0,2.78.78,3.73,2.33.29.68.43,1.32.43,1.93,0,.41-.32,1.92-.97,4.53l-7.53,30.88c-.14.5-.62,1.13-1.42,1.88-.82.59-1.68.88-2.57.88-1.54,0-2.78-.77-3.73-2.31-.29-.7-.43-1.35-.43-1.96,0-.45.38-2.16,1.15-5.15,4.61-19.05,7.08-29.18,7.4-30.37.16-.46.6-1.04,1.31-1.72.8-.63,1.68-.94,2.63-.94Z"/>
      <path class="cls-2" d="m378.67,348.85h.24c.88,0,2.06.48,3.54,1.45,8.99,5.04,13.77,7.76,14.34,8.15,1.04.95,1.55,1.99,1.55,3.14v.27c0,1.64-.98,3.02-2.95,4.13-9.56,6.61-14.56,10.03-14.99,10.24-.61.32-1.21.48-1.8.48h-.32c-1.55,0-2.79-.83-3.7-2.49-.23-.59-.35-1.11-.35-1.56v-.24c0-1.59.97-2.96,2.9-4.1,5.77-3.97,8.77-6.04,9.01-6.22-.04-.05-2.21-1.3-6.51-3.73-2.16-1.16-3.42-1.93-3.78-2.31-.84-.91-1.26-1.88-1.26-2.92v-.16c0-1.47.74-2.68,2.23-3.65.66-.32,1.28-.48,1.85-.48Z"/>
    </g>
    <g>
      <path class="cls-2" d="m178.28,270.46c1.41,0,2.58.65,3.51,1.96.45.73.67,1.49.67,2.28,0,1.64-.95,3.01-2.84,4.1-5.86,4.02-8.88,6.11-9.06,6.27v.03c.89.54,4.14,2.39,9.73,5.55,1.22.97,1.82,2.14,1.82,3.51,0,1.47-.7,2.66-2.09,3.59-.7.38-1.4.56-2.12.56-.91,0-2.03-.43-3.35-1.29-8.24-4.63-13.1-7.38-14.58-8.26-1.07-.98-1.61-2.1-1.61-3.35,0-1.66.92-3.02,2.76-4.08,10.06-6.97,15.16-10.45,15.28-10.45.64-.29,1.27-.43,1.88-.43Z"/>
      <path class="cls-2" d="m194.96,270.46c1.54,0,2.78.78,3.73,2.33.29.68.43,1.32.43,1.93,0,.41-.32,1.92-.97,4.53l-7.53,30.88c-.14.5-.62,1.13-1.42,1.88-.82.59-1.68.88-2.57.88-1.54,0-2.78-.77-3.73-2.31-.29-.7-.43-1.35-.43-1.96,0-.45.38-2.16,1.15-5.15,4.61-19.05,7.08-29.18,7.4-30.37.16-.46.6-1.04,1.31-1.72.8-.63,1.68-.94,2.63-.94Z"/>
      <path class="cls-2" d="m203.54,285.04h.24c.88,0,2.06.48,3.54,1.45,8.99,5.04,13.77,7.76,14.34,8.15,1.04.95,1.55,1.99,1.55,3.14v.27c0,1.64-.98,3.02-2.95,4.13-9.56,6.61-14.56,10.03-14.99,10.24-.61.32-1.21.48-1.8.48h-.32c-1.55,0-2.79-.83-3.7-2.49-.23-.59-.35-1.11-.35-1.56v-.24c0-1.59.97-2.96,2.9-4.1,5.77-3.97,8.77-6.04,9.01-6.22-.04-.05-2.21-1.3-6.51-3.73-2.16-1.16-3.42-1.93-3.78-2.31-.84-.91-1.26-1.88-1.26-2.92v-.16c0-1.47.74-2.68,2.23-3.65.66-.32,1.28-.48,1.85-.48Z"/>
    </g>
    <g>
      <path class="cls-2" d="m69.52,270.46c1.41,0,2.58.65,3.51,1.96.45.73.67,1.49.67,2.28,0,1.64-.95,3.01-2.84,4.1-5.86,4.02-8.88,6.11-9.06,6.27v.03c.89.54,4.14,2.39,9.73,5.55,1.22.97,1.82,2.14,1.82,3.51,0,1.47-.7,2.66-2.09,3.59-.7.38-1.4.56-2.12.56-.91,0-2.03-.43-3.35-1.29-8.24-4.63-13.1-7.38-14.58-8.26-1.07-.98-1.61-2.1-1.61-3.35,0-1.66.92-3.02,2.76-4.08,10.06-6.97,15.16-10.45,15.28-10.45.64-.29,1.27-.43,1.88-.43Z"/>
      <path class="cls-2" d="m86.2,270.46c1.54,0,2.78.78,3.73,2.33.29.68.43,1.32.43,1.93,0,.41-.32,1.92-.97,4.53l-7.53,30.88c-.14.5-.62,1.13-1.42,1.88-.82.59-1.68.88-2.57.88-1.54,0-2.78-.77-3.73-2.31-.29-.7-.43-1.35-.43-1.96,0-.45.38-2.16,1.15-5.15,4.61-19.05,7.08-29.18,7.4-30.37.16-.46.6-1.04,1.31-1.72.8-.63,1.68-.94,2.63-.94Z"/>
      <path class="cls-2" d="m94.78,285.04h.24c.88,0,2.06.48,3.54,1.45,8.99,5.04,13.77,7.76,14.34,8.15,1.04.95,1.55,1.99,1.55,3.14v.27c0,1.64-.98,3.02-2.95,4.13-9.56,6.61-14.56,10.03-14.99,10.24-.61.32-1.21.48-1.8.48h-.32c-1.55,0-2.79-.83-3.7-2.49-.23-.59-.35-1.11-.35-1.56v-.24c0-1.59.97-2.96,2.9-4.1,5.77-3.97,8.77-6.04,9.01-6.22-.04-.05-2.21-1.3-6.51-3.73-2.16-1.16-3.42-1.93-3.78-2.31-.84-.91-1.26-1.88-1.26-2.92v-.16c0-1.47.74-2.68,2.23-3.65.66-.32,1.28-.48,1.85-.48Z"/>
    </g>
    <g>
      <path class="cls-2" d="m291.97,270.46c1.41,0,2.58.65,3.51,1.96.45.73.67,1.49.67,2.28,0,1.64-.95,3.01-2.84,4.1-5.86,4.02-8.88,6.11-9.06,6.27v.03c.89.54,4.14,2.39,9.73,5.55,1.22.97,1.82,2.14,1.82,3.51,0,1.47-.7,2.66-2.09,3.59-.7.38-1.4.56-2.12.56-.91,0-2.03-.43-3.35-1.29-8.24-4.63-13.1-7.38-14.58-8.26-1.07-.98-1.61-2.1-1.61-3.35,0-1.66.92-3.02,2.76-4.08,10.06-6.97,15.16-10.45,15.28-10.45.64-.29,1.27-.43,1.88-.43Z"/>
      <path class="cls-2" d="m308.64,270.46c1.54,0,2.78.78,3.73,2.33.29.68.43,1.32.43,1.93,0,.41-.32,1.92-.97,4.53l-7.53,30.88c-.14.5-.62,1.13-1.42,1.88-.82.59-1.68.88-2.57.88-1.54,0-2.78-.77-3.73-2.31-.29-.7-.43-1.35-.43-1.96,0-.45.38-2.16,1.15-5.15,4.61-19.05,7.08-29.18,7.4-30.37.16-.46.6-1.04,1.31-1.72.8-.63,1.68-.94,2.63-.94Z"/>
      <path class="cls-2" d="m317.22,285.04h.24c.88,0,2.06.48,3.54,1.45,8.99,5.04,13.77,7.76,14.34,8.15,1.04.95,1.55,1.99,1.55,3.14v.27c0,1.64-.98,3.02-2.95,4.13-9.56,6.61-14.56,10.03-14.99,10.24-.61.32-1.21.48-1.8.48h-.32c-1.55,0-2.79-.83-3.7-2.49-.23-.59-.35-1.11-.35-1.56v-.24c0-1.59.97-2.96,2.9-4.1,5.77-3.97,8.77-6.04,9.01-6.22-.04-.05-2.21-1.3-6.51-3.73-2.16-1.16-3.42-1.93-3.78-2.31-.84-.91-1.26-1.88-1.26-2.92v-.16c0-1.47.74-2.68,2.23-3.65.66-.32,1.28-.48,1.85-.48Z"/>
    </g>
    <g>
      <path class="cls-2" d="m399.13,270.46c1.41,0,2.58.65,3.51,1.96.45.73.67,1.49.67,2.28,0,1.64-.95,3.01-2.84,4.1-5.86,4.02-8.88,6.11-9.06,6.27v.03c.89.54,4.14,2.39,9.73,5.55,1.22.97,1.82,2.14,1.82,3.51,0,1.47-.7,2.66-2.09,3.59-.7.38-1.4.56-2.12.56-.91,0-2.03-.43-3.35-1.29-8.24-4.63-13.1-7.38-14.58-8.26-1.07-.98-1.61-2.1-1.61-3.35,0-1.66.92-3.02,2.76-4.08,10.06-6.97,15.16-10.45,15.28-10.45.64-.29,1.27-.43,1.88-.43Z"/>
      <path class="cls-2" d="m415.8,270.46c1.54,0,2.78.78,3.73,2.33.29.68.43,1.32.43,1.93,0,.41-.32,1.92-.97,4.53l-7.53,30.88c-.14.5-.62,1.13-1.42,1.88-.82.59-1.68.88-2.57.88-1.54,0-2.78-.77-3.73-2.31-.29-.7-.43-1.35-.43-1.96,0-.45.38-2.16,1.15-5.15,4.61-19.05,7.08-29.18,7.4-30.37.16-.46.6-1.04,1.31-1.72.8-.63,1.68-.94,2.63-.94Z"/>
      <path class="cls-2" d="m424.38,285.04h.24c.88,0,2.06.48,3.54,1.45,8.99,5.04,13.77,7.76,14.34,8.15,1.04.95,1.55,1.99,1.55,3.14v.27c0,1.64-.98,3.02-2.95,4.13-9.56,6.61-14.56,10.03-14.99,10.24-.61.32-1.21.48-1.8.48h-.32c-1.55,0-2.79-.83-3.7-2.49-.23-.59-.35-1.11-.35-1.56v-.24c0-1.59.97-2.96,2.9-4.1,5.77-3.97,8.77-6.04,9.01-6.22-.04-.05-2.21-1.3-6.51-3.73-2.16-1.16-3.42-1.93-3.78-2.31-.84-.91-1.26-1.88-1.26-2.92v-.16c0-1.47.74-2.68,2.23-3.65.66-.32,1.28-.48,1.85-.48Z"/>
    </g>
    <g>
      <path class="cls-2" d="m132.58,209.89c1.41,0,2.58.65,3.51,1.96.45.73.67,1.49.67,2.28,0,1.64-.95,3.01-2.84,4.1-5.86,4.02-8.88,6.11-9.06,6.27v.03c.89.54,4.14,2.39,9.73,5.55,1.22.97,1.82,2.14,1.82,3.51,0,1.47-.7,2.66-2.09,3.59-.7.38-1.4.56-2.12.56-.91,0-2.03-.43-3.35-1.29-8.24-4.63-13.1-7.38-14.58-8.26-1.07-.98-1.61-2.1-1.61-3.35,0-1.66.92-3.02,2.76-4.08,10.06-6.97,15.16-10.45,15.28-10.45.64-.29,1.27-.43,1.88-.43Z"/>
      <path class="cls-2" d="m149.25,209.89c1.54,0,2.78.78,3.73,2.33.29.68.43,1.32.43,1.93,0,.41-.32,1.92-.97,4.53l-7.53,30.88c-.14.5-.62,1.13-1.42,1.88-.82.59-1.68.88-2.57.88-1.54,0-2.78-.77-3.73-2.31-.29-.7-.43-1.35-.43-1.96,0-.45.38-2.16,1.15-5.15,4.61-19.05,7.08-29.18,7.4-30.37.16-.46.6-1.04,1.31-1.72.8-.63,1.68-.94,2.63-.94Z"/>
      <path class="cls-2" d="m157.83,224.47h.24c.88,0,2.06.48,3.54,1.45,8.99,5.04,13.77,7.76,14.34,8.15,1.04.95,1.55,1.99,1.55,3.14v.27c0,1.64-.98,3.02-2.95,4.13-9.56,6.61-14.56,10.03-14.99,10.24-.61.32-1.21.48-1.8.48h-.32c-1.55,0-2.79-.83-3.7-2.49-.23-.59-.35-1.11-.35-1.56v-.24c0-1.59.97-2.96,2.9-4.1,5.77-3.97,8.77-6.04,9.01-6.22-.04-.05-2.21-1.3-6.51-3.73-2.16-1.16-3.42-1.93-3.78-2.31-.84-.91-1.26-1.88-1.26-2.92v-.16c0-1.47.74-2.68,2.23-3.65.66-.32,1.28-.48,1.85-.48Z"/>
    </g>
    <g>
      <path class="cls-2" d="m23.81,209.89c1.41,0,2.58.65,3.51,1.96.45.73.67,1.49.67,2.28,0,1.64-.95,3.01-2.84,4.1-5.86,4.02-8.88,6.11-9.06,6.27v.03c.89.54,4.14,2.39,9.73,5.55,1.22.97,1.82,2.14,1.82,3.51,0,1.47-.7,2.66-2.09,3.59-.7.38-1.4.56-2.12.56-.91,0-2.03-.43-3.35-1.29-8.24-4.63-13.1-7.38-14.58-8.26-1.07-.98-1.61-2.1-1.61-3.35,0-1.66.92-3.02,2.76-4.08,10.06-6.97,15.16-10.45,15.28-10.45.64-.29,1.27-.43,1.88-.43Z"/>
      <path class="cls-2" d="m40.49,209.89c1.54,0,2.78.78,3.73,2.33.29.68.43,1.32.43,1.93,0,.41-.32,1.92-.97,4.53l-7.53,30.88c-.14.5-.62,1.13-1.42,1.88-.82.59-1.68.88-2.57.88-1.54,0-2.78-.77-3.73-2.31-.29-.7-.43-1.35-.43-1.96,0-.45.38-2.16,1.15-5.15,4.61-19.05,7.08-29.18,7.4-30.37.16-.46.6-1.04,1.31-1.72.8-.63,1.68-.94,2.63-.94Z"/>
      <path class="cls-2" d="m49.07,224.47h.24c.88,0,2.06.48,3.54,1.45,8.99,5.04,13.77,7.76,14.34,8.15,1.04.95,1.55,1.99,1.55,3.14v.27c0,1.64-.98,3.02-2.95,4.13-9.56,6.61-14.56,10.03-14.99,10.24-.61.32-1.21.48-1.8.48h-.32c-1.55,0-2.79-.83-3.7-2.49-.23-.59-.35-1.11-.35-1.56v-.24c0-1.59.97-2.96,2.9-4.1,5.77-3.97,8.77-6.04,9.01-6.22-.04-.05-2.21-1.3-6.51-3.73-2.16-1.16-3.42-1.93-3.78-2.31-.84-.91-1.26-1.88-1.26-2.92v-.16c0-1.47.74-2.68,2.23-3.65.66-.32,1.28-.48,1.85-.48Z"/>
    </g>
    <g>
      <path class="cls-2" d="m246.26,209.89c1.41,0,2.58.65,3.51,1.96.45.73.67,1.49.67,2.28,0,1.64-.95,3.01-2.84,4.1-5.86,4.02-8.88,6.11-9.06,6.27v.03c.89.54,4.14,2.39,9.73,5.55,1.22.97,1.82,2.14,1.82,3.51,0,1.47-.7,2.66-2.09,3.59-.7.38-1.4.56-2.12.56-.91,0-2.03-.43-3.35-1.29-8.24-4.63-13.1-7.38-14.58-8.26-1.07-.98-1.61-2.1-1.61-3.35,0-1.66.92-3.02,2.76-4.08,10.06-6.97,15.16-10.45,15.28-10.45.64-.29,1.27-.43,1.88-.43Z"/>
      <path class="cls-2" d="m262.93,209.89c1.54,0,2.78.78,3.73,2.33.29.68.43,1.32.43,1.93,0,.41-.32,1.92-.97,4.53l-7.53,30.88c-.14.5-.62,1.13-1.42,1.88-.82.59-1.68.88-2.57.88-1.54,0-2.78-.77-3.73-2.31-.29-.7-.43-1.35-.43-1.96,0-.45.38-2.16,1.15-5.15,4.61-19.05,7.08-29.18,7.4-30.37.16-.46.6-1.04,1.31-1.72.8-.63,1.68-.94,2.63-.94Z"/>
      <path class="cls-2" d="m271.51,224.47h.24c.88,0,2.06.48,3.54,1.45,8.99,5.04,13.77,7.76,14.34,8.15,1.04.95,1.55,1.99,1.55,3.14v.27c0,1.64-.98,3.02-2.95,4.13-9.56,6.61-14.56,10.03-14.99,10.24-.61.32-1.21.48-1.8.48h-.32c-1.55,0-2.79-.83-3.7-2.49-.23-.59-.35-1.11-.35-1.56v-.24c0-1.59.97-2.96,2.9-4.1,5.77-3.97,8.77-6.04,9.01-6.22-.04-.05-2.21-1.3-6.51-3.73-2.16-1.16-3.42-1.93-3.78-2.31-.84-.91-1.26-1.88-1.26-2.92v-.16c0-1.47.74-2.68,2.23-3.65.66-.32,1.28-.48,1.85-.48Z"/>
    </g>
    <g>
      <path class="cls-2" d="m462.18,209.89c1.41,0,2.58.65,3.51,1.96.45.73.67,1.49.67,2.28,0,1.64-.95,3.01-2.84,4.1-5.86,4.02-8.88,6.11-9.06,6.27v.03c.89.54,4.14,2.39,9.73,5.55,1.22.97,1.82,2.14,1.82,3.51,0,1.47-.7,2.66-2.09,3.59-.7.38-1.4.56-2.12.56-.91,0-2.03-.43-3.35-1.29-8.24-4.63-13.1-7.38-14.58-8.26-1.07-.98-1.61-2.1-1.61-3.35,0-1.66.92-3.02,2.76-4.08,10.06-6.97,15.16-10.45,15.28-10.45.64-.29,1.27-.43,1.88-.43Z"/>
      <path class="cls-2" d="m478.85,209.89c1.54,0,2.78.78,3.73,2.33.29.68.43,1.32.43,1.93,0,.41-.32,1.92-.97,4.53l-7.53,30.88c-.14.5-.62,1.13-1.42,1.88-.82.59-1.68.88-2.57.88-1.54,0-2.78-.77-3.73-2.31-.29-.7-.43-1.35-.43-1.96,0-.45.38-2.16,1.15-5.15,4.61-19.05,7.08-29.18,7.4-30.37.16-.46.6-1.04,1.31-1.72.8-.63,1.68-.94,2.63-.94Z"/>
      <path class="cls-2" d="m487.43,224.47h.24c.88,0,2.06.48,3.54,1.45,8.99,5.04,13.77,7.76,14.34,8.15,1.04.95,1.55,1.99,1.55,3.14v.27c0,1.64-.98,3.02-2.95,4.13-9.56,6.61-14.56,10.03-14.99,10.24-.61.32-1.21.48-1.8.48h-.32c-1.55,0-2.79-.83-3.7-2.49-.23-.59-.35-1.11-.35-1.56v-.24c0-1.59.97-2.96,2.9-4.1,5.77-3.97,8.77-6.04,9.01-6.22-.04-.05-2.21-1.3-6.51-3.73-2.16-1.16-3.42-1.93-3.78-2.31-.84-.91-1.26-1.88-1.26-2.92v-.16c0-1.47.74-2.68,2.23-3.65.66-.32,1.28-.48,1.85-.48Z"/>
    </g>
    <g>
      <path class="cls-2" d="m353.42,209.89c1.41,0,2.58.65,3.51,1.96.45.73.67,1.49.67,2.28,0,1.64-.95,3.01-2.84,4.1-5.86,4.02-8.88,6.11-9.06,6.27v.03c.89.54,4.14,2.39,9.73,5.55,1.22.97,1.82,2.14,1.82,3.51,0,1.47-.7,2.66-2.09,3.59-.7.38-1.4.56-2.12.56-.91,0-2.03-.43-3.35-1.29-8.24-4.63-13.1-7.38-14.58-8.26-1.07-.98-1.61-2.1-1.61-3.35,0-1.66.92-3.02,2.76-4.08,10.06-6.97,15.16-10.45,15.28-10.45.64-.29,1.27-.43,1.88-.43Z"/>
      <path class="cls-2" d="m370.09,209.89c1.54,0,2.78.78,3.73,2.33.29.68.43,1.32.43,1.93,0,.41-.32,1.92-.97,4.53l-7.53,30.88c-.14.5-.62,1.13-1.42,1.88-.82.59-1.68.88-2.57.88-1.54,0-2.78-.77-3.73-2.31-.29-.7-.43-1.35-.43-1.96,0-.45.38-2.16,1.15-5.15,4.61-19.05,7.08-29.18,7.4-30.37.16-.46.6-1.04,1.31-1.72.8-.63,1.68-.94,2.63-.94Z"/>
      <path class="cls-2" d="m378.67,224.47h.24c.88,0,2.06.48,3.54,1.45,8.99,5.04,13.77,7.76,14.34,8.15,1.04.95,1.55,1.99,1.55,3.14v.27c0,1.64-.98,3.02-2.95,4.13-9.56,6.61-14.56,10.03-14.99,10.24-.61.32-1.21.48-1.8.48h-.32c-1.55,0-2.79-.83-3.7-2.49-.23-.59-.35-1.11-.35-1.56v-.24c0-1.59.97-2.96,2.9-4.1,5.77-3.97,8.77-6.04,9.01-6.22-.04-.05-2.21-1.3-6.51-3.73-2.16-1.16-3.42-1.93-3.78-2.31-.84-.91-1.26-1.88-1.26-2.92v-.16c0-1.47.74-2.68,2.23-3.65.66-.32,1.28-.48,1.85-.48Z"/>
    </g>
    <g>
      <path class="cls-2" d="m178.28,146.08c1.41,0,2.58.65,3.51,1.96.45.73.67,1.49.67,2.28,0,1.64-.95,3.01-2.84,4.1-5.86,4.02-8.88,6.11-9.06,6.27v.03c.89.54,4.14,2.39,9.73,5.55,1.22.97,1.82,2.14,1.82,3.51,0,1.47-.7,2.66-2.09,3.59-.7.38-1.4.56-2.12.56-.91,0-2.03-.43-3.35-1.29-8.24-4.63-13.1-7.38-14.58-8.26-1.07-.98-1.61-2.1-1.61-3.35,0-1.66.92-3.02,2.76-4.08,10.06-6.97,15.16-10.45,15.28-10.45.64-.29,1.27-.43,1.88-.43Z"/>
      <path class="cls-2" d="m194.96,146.08c1.54,0,2.78.78,3.73,2.33.29.68.43,1.32.43,1.93,0,.41-.32,1.92-.97,4.53l-7.53,30.88c-.14.5-.62,1.13-1.42,1.88-.82.59-1.68.88-2.57.88-1.54,0-2.78-.77-3.73-2.31-.29-.7-.43-1.35-.43-1.96,0-.45.38-2.16,1.15-5.15,4.61-19.05,7.08-29.18,7.4-30.37.16-.46.6-1.04,1.31-1.72.8-.63,1.68-.94,2.63-.94Z"/>
      <path class="cls-2" d="m203.54,160.66h.24c.88,0,2.06.48,3.54,1.45,8.99,5.04,13.77,7.76,14.34,8.15,1.04.95,1.55,1.99,1.55,3.14v.27c0,1.64-.98,3.02-2.95,4.13-9.56,6.61-14.56,10.03-14.99,10.24-.61.32-1.21.48-1.8.48h-.32c-1.55,0-2.79-.83-3.7-2.49-.23-.59-.35-1.11-.35-1.56v-.24c0-1.59.97-2.96,2.9-4.1,5.77-3.97,8.77-6.04,9.01-6.22-.04-.05-2.21-1.3-6.51-3.73-2.16-1.16-3.42-1.93-3.78-2.31-.84-.91-1.26-1.88-1.26-2.92v-.16c0-1.47.74-2.68,2.23-3.65.66-.32,1.28-.48,1.85-.48Z"/>
    </g>
    <g>
      <path class="cls-2" d="m69.52,146.08c1.41,0,2.58.65,3.51,1.96.45.73.67,1.49.67,2.28,0,1.64-.95,3.01-2.84,4.1-5.86,4.02-8.88,6.11-9.06,6.27v.03c.89.54,4.14,2.39,9.73,5.55,1.22.97,1.82,2.14,1.82,3.51,0,1.47-.7,2.66-2.09,3.59-.7.38-1.4.56-2.12.56-.91,0-2.03-.43-3.35-1.29-8.24-4.63-13.1-7.38-14.58-8.26-1.07-.98-1.61-2.1-1.61-3.35,0-1.66.92-3.02,2.76-4.08,10.06-6.97,15.16-10.45,15.28-10.45.64-.29,1.27-.43,1.88-.43Z"/>
      <path class="cls-2" d="m86.2,146.08c1.54,0,2.78.78,3.73,2.33.29.68.43,1.32.43,1.93,0,.41-.32,1.92-.97,4.53l-7.53,30.88c-.14.5-.62,1.13-1.42,1.88-.82.59-1.68.88-2.57.88-1.54,0-2.78-.77-3.73-2.31-.29-.7-.43-1.35-.43-1.96,0-.45.38-2.16,1.15-5.15,4.61-19.05,7.08-29.18,7.4-30.37.16-.46.6-1.04,1.31-1.72.8-.63,1.68-.94,2.63-.94Z"/>
      <path class="cls-2" d="m94.78,160.66h.24c.88,0,2.06.48,3.54,1.45,8.99,5.04,13.77,7.76,14.34,8.15,1.04.95,1.55,1.99,1.55,3.14v.27c0,1.64-.98,3.02-2.95,4.13-9.56,6.61-14.56,10.03-14.99,10.24-.61.32-1.21.48-1.8.48h-.32c-1.55,0-2.79-.83-3.7-2.49-.23-.59-.35-1.11-.35-1.56v-.24c0-1.59.97-2.96,2.9-4.1,5.77-3.97,8.77-6.04,9.01-6.22-.04-.05-2.21-1.3-6.51-3.73-2.16-1.16-3.42-1.93-3.78-2.31-.84-.91-1.26-1.88-1.26-2.92v-.16c0-1.47.74-2.68,2.23-3.65.66-.32,1.28-.48,1.85-.48Z"/>
    </g>
    <g>
      <path class="cls-2" d="m291.97,146.08c1.41,0,2.58.65,3.51,1.96.45.73.67,1.49.67,2.28,0,1.64-.95,3.01-2.84,4.1-5.86,4.02-8.88,6.11-9.06,6.27v.03c.89.54,4.14,2.39,9.73,5.55,1.22.97,1.82,2.14,1.82,3.51,0,1.47-.7,2.66-2.09,3.59-.7.38-1.4.56-2.12.56-.91,0-2.03-.43-3.35-1.29-8.24-4.63-13.1-7.38-14.58-8.26-1.07-.98-1.61-2.1-1.61-3.35,0-1.66.92-3.02,2.76-4.08,10.06-6.97,15.16-10.45,15.28-10.45.64-.29,1.27-.43,1.88-.43Z"/>
      <path class="cls-2" d="m308.64,146.08c1.54,0,2.78.78,3.73,2.33.29.68.43,1.32.43,1.93,0,.41-.32,1.92-.97,4.53l-7.53,30.88c-.14.5-.62,1.13-1.42,1.88-.82.59-1.68.88-2.57.88-1.54,0-2.78-.77-3.73-2.31-.29-.7-.43-1.35-.43-1.96,0-.45.38-2.16,1.15-5.15,4.61-19.05,7.08-29.18,7.4-30.37.16-.46.6-1.04,1.31-1.72.8-.63,1.68-.94,2.63-.94Z"/>
      <path class="cls-2" d="m317.22,160.66h.24c.88,0,2.06.48,3.54,1.45,8.99,5.04,13.77,7.76,14.34,8.15,1.04.95,1.55,1.99,1.55,3.14v.27c0,1.64-.98,3.02-2.95,4.13-9.56,6.61-14.56,10.03-14.99,10.24-.61.32-1.21.48-1.8.48h-.32c-1.55,0-2.79-.83-3.7-2.49-.23-.59-.35-1.11-.35-1.56v-.24c0-1.59.97-2.96,2.9-4.1,5.77-3.97,8.77-6.04,9.01-6.22-.04-.05-2.21-1.3-6.51-3.73-2.16-1.16-3.42-1.93-3.78-2.31-.84-.91-1.26-1.88-1.26-2.92v-.16c0-1.47.74-2.68,2.23-3.65.66-.32,1.28-.48,1.85-.48Z"/>
    </g>
    <g>
      <path class="cls-2" d="m399.13,146.08c1.41,0,2.58.65,3.51,1.96.45.73.67,1.49.67,2.28,0,1.64-.95,3.01-2.84,4.1-5.86,4.02-8.88,6.11-9.06,6.27v.03c.89.54,4.14,2.39,9.73,5.55,1.22.97,1.82,2.14,1.82,3.51,0,1.47-.7,2.66-2.09,3.59-.7.38-1.4.56-2.12.56-.91,0-2.03-.43-3.35-1.29-8.24-4.63-13.1-7.38-14.58-8.26-1.07-.98-1.61-2.1-1.61-3.35,0-1.66.92-3.02,2.76-4.08,10.06-6.97,15.16-10.45,15.28-10.45.64-.29,1.27-.43,1.88-.43Z"/>
      <path class="cls-2" d="m415.8,146.08c1.54,0,2.78.78,3.73,2.33.29.68.43,1.32.43,1.93,0,.41-.32,1.92-.97,4.53l-7.53,30.88c-.14.5-.62,1.13-1.42,1.88-.82.59-1.68.88-2.57.88-1.54,0-2.78-.77-3.73-2.31-.29-.7-.43-1.35-.43-1.96,0-.45.38-2.16,1.15-5.15,4.61-19.05,7.08-29.18,7.4-30.37.16-.46.6-1.04,1.31-1.72.8-.63,1.68-.94,2.63-.94Z"/>
      <path class="cls-2" d="m424.38,160.66h.24c.88,0,2.06.48,3.54,1.45,8.99,5.04,13.77,7.76,14.34,8.15,1.04.95,1.55,1.99,1.55,3.14v.27c0,1.64-.98,3.02-2.95,4.13-9.56,6.61-14.56,10.03-14.99,10.24-.61.32-1.21.48-1.8.48h-.32c-1.55,0-2.79-.83-3.7-2.49-.23-.59-.35-1.11-.35-1.56v-.24c0-1.59.97-2.96,2.9-4.1,5.77-3.97,8.77-6.04,9.01-6.22-.04-.05-2.21-1.3-6.51-3.73-2.16-1.16-3.42-1.93-3.78-2.31-.84-.91-1.26-1.88-1.26-2.92v-.16c0-1.47.74-2.68,2.23-3.65.66-.32,1.28-.48,1.85-.48Z"/>
    </g>
    <g>
      <path class="cls-2" d="m132.58,71.51c1.41,0,2.58.65,3.51,1.96.45.73.67,1.49.67,2.28,0,1.64-.95,3.01-2.84,4.1-5.86,4.02-8.88,6.11-9.06,6.27v.03c.89.54,4.14,2.39,9.73,5.55,1.22.97,1.82,2.14,1.82,3.51,0,1.47-.7,2.66-2.09,3.59-.7.38-1.4.56-2.12.56-.91,0-2.03-.43-3.35-1.29-8.24-4.63-13.1-7.38-14.58-8.26-1.07-.98-1.61-2.1-1.61-3.35,0-1.66.92-3.02,2.76-4.08,10.06-6.97,15.16-10.45,15.28-10.45.64-.29,1.27-.43,1.88-.43Z"/>
      <path class="cls-2" d="m149.25,71.51c1.54,0,2.78.78,3.73,2.33.29.68.43,1.32.43,1.93,0,.41-.32,1.92-.97,4.53l-7.53,30.88c-.14.5-.62,1.13-1.42,1.88-.82.59-1.68.88-2.57.88-1.54,0-2.78-.77-3.73-2.31-.29-.7-.43-1.35-.43-1.96,0-.45.38-2.16,1.15-5.15,4.61-19.05,7.08-29.18,7.4-30.37.16-.46.6-1.04,1.31-1.72.8-.63,1.68-.94,2.63-.94Z"/>
      <path class="cls-2" d="m157.83,86.1h.24c.88,0,2.06.48,3.54,1.45,8.99,5.04,13.77,7.76,14.34,8.15,1.04.95,1.55,1.99,1.55,3.14v.27c0,1.64-.98,3.02-2.95,4.13-9.56,6.61-14.56,10.03-14.99,10.24-.61.32-1.21.48-1.8.48h-.32c-1.55,0-2.79-.83-3.7-2.49-.23-.59-.35-1.11-.35-1.56v-.24c0-1.59.97-2.96,2.9-4.1,5.77-3.97,8.77-6.04,9.01-6.22-.04-.05-2.21-1.3-6.51-3.73-2.16-1.16-3.42-1.93-3.78-2.31-.84-.91-1.26-1.88-1.26-2.92v-.16c0-1.47.74-2.68,2.23-3.65.66-.32,1.28-.48,1.85-.48Z"/>
    </g>
    <g>
      <path class="cls-2" d="m23.81,71.51c1.41,0,2.58.65,3.51,1.96.45.73.67,1.49.67,2.28,0,1.64-.95,3.01-2.84,4.1-5.86,4.02-8.88,6.11-9.06,6.27v.03c.89.54,4.14,2.39,9.73,5.55,1.22.97,1.82,2.14,1.82,3.51,0,1.47-.7,2.66-2.09,3.59-.7.38-1.4.56-2.12.56-.91,0-2.03-.43-3.35-1.29-8.24-4.63-13.1-7.38-14.58-8.26-1.07-.98-1.61-2.1-1.61-3.35,0-1.66.92-3.02,2.76-4.08,10.06-6.97,15.16-10.45,15.28-10.45.64-.29,1.27-.43,1.88-.43Z"/>
      <path class="cls-2" d="m40.49,71.51c1.54,0,2.78.78,3.73,2.33.29.68.43,1.32.43,1.93,0,.41-.32,1.92-.97,4.53l-7.53,30.88c-.14.5-.62,1.13-1.42,1.88-.82.59-1.68.88-2.57.88-1.54,0-2.78-.77-3.73-2.31-.29-.7-.43-1.35-.43-1.96,0-.45.38-2.16,1.15-5.15,4.61-19.05,7.08-29.18,7.4-30.37.16-.46.6-1.04,1.31-1.72.8-.63,1.68-.94,2.63-.94Z"/>
      <path class="cls-2" d="m49.07,86.1h.24c.88,0,2.06.48,3.54,1.45,8.99,5.04,13.77,7.76,14.34,8.15,1.04.95,1.55,1.99,1.55,3.14v.27c0,1.64-.98,3.02-2.95,4.13-9.56,6.61-14.56,10.03-14.99,10.24-.61.32-1.21.48-1.8.48h-.32c-1.55,0-2.79-.83-3.7-2.49-.23-.59-.35-1.11-.35-1.56v-.24c0-1.59.97-2.96,2.9-4.1,5.77-3.97,8.77-6.04,9.01-6.22-.04-.05-2.21-1.3-6.51-3.73-2.16-1.16-3.42-1.93-3.78-2.31-.84-.91-1.26-1.88-1.26-2.92v-.16c0-1.47.74-2.68,2.23-3.65.66-.32,1.28-.48,1.85-.48Z"/>
    </g>
    <g>
      <path class="cls-2" d="m246.26,71.51c1.41,0,2.58.65,3.51,1.96.45.73.67,1.49.67,2.28,0,1.64-.95,3.01-2.84,4.1-5.86,4.02-8.88,6.11-9.06,6.27v.03c.89.54,4.14,2.39,9.73,5.55,1.22.97,1.82,2.14,1.82,3.51,0,1.47-.7,2.66-2.09,3.59-.7.38-1.4.56-2.12.56-.91,0-2.03-.43-3.35-1.29-8.24-4.63-13.1-7.38-14.58-8.26-1.07-.98-1.61-2.1-1.61-3.35,0-1.66.92-3.02,2.76-4.08,10.06-6.97,15.16-10.45,15.28-10.45.64-.29,1.27-.43,1.88-.43Z"/>
      <path class="cls-2" d="m262.93,71.51c1.54,0,2.78.78,3.73,2.33.29.68.43,1.32.43,1.93,0,.41-.32,1.92-.97,4.53l-7.53,30.88c-.14.5-.62,1.13-1.42,1.88-.82.59-1.68.88-2.57.88-1.54,0-2.78-.77-3.73-2.31-.29-.7-.43-1.35-.43-1.96,0-.45.38-2.16,1.15-5.15,4.61-19.05,7.08-29.18,7.4-30.37.16-.46.6-1.04,1.31-1.72.8-.63,1.68-.94,2.63-.94Z"/>
      <path class="cls-2" d="m271.51,86.1h.24c.88,0,2.06.48,3.54,1.45,8.99,5.04,13.77,7.76,14.34,8.15,1.04.95,1.55,1.99,1.55,3.14v.27c0,1.64-.98,3.02-2.95,4.13-9.56,6.61-14.56,10.03-14.99,10.24-.61.32-1.21.48-1.8.48h-.32c-1.55,0-2.79-.83-3.7-2.49-.23-.59-.35-1.11-.35-1.56v-.24c0-1.59.97-2.96,2.9-4.1,5.77-3.97,8.77-6.04,9.01-6.22-.04-.05-2.21-1.3-6.51-3.73-2.16-1.16-3.42-1.93-3.78-2.31-.84-.91-1.26-1.88-1.26-2.92v-.16c0-1.47.74-2.68,2.23-3.65.66-.32,1.28-.48,1.85-.48Z"/>
    </g>
    <g>
      <path class="cls-2" d="m462.18,71.51c1.41,0,2.58.65,3.51,1.96.45.73.67,1.49.67,2.28,0,1.64-.95,3.01-2.84,4.1-5.86,4.02-8.88,6.11-9.06,6.27v.03c.89.54,4.14,2.39,9.73,5.55,1.22.97,1.82,2.14,1.82,3.51,0,1.47-.7,2.66-2.09,3.59-.7.38-1.4.56-2.12.56-.91,0-2.03-.43-3.35-1.29-8.24-4.63-13.1-7.38-14.58-8.26-1.07-.98-1.61-2.1-1.61-3.35,0-1.66.92-3.02,2.76-4.08,10.06-6.97,15.16-10.45,15.28-10.45.64-.29,1.27-.43,1.88-.43Z"/>
      <path class="cls-2" d="m478.85,71.51c1.54,0,2.78.78,3.73,2.33.29.68.43,1.32.43,1.93,0,.41-.32,1.92-.97,4.53l-7.53,30.88c-.14.5-.62,1.13-1.42,1.88-.82.59-1.68.88-2.57.88-1.54,0-2.78-.77-3.73-2.31-.29-.7-.43-1.35-.43-1.96,0-.45.38-2.16,1.15-5.15,4.61-19.05,7.08-29.18,7.4-30.37.16-.46.6-1.04,1.31-1.72.8-.63,1.68-.94,2.63-.94Z"/>
      <path class="cls-2" d="m487.43,86.1h.24c.88,0,2.06.48,3.54,1.45,8.99,5.04,13.77,7.76,14.34,8.15,1.04.95,1.55,1.99,1.55,3.14v.27c0,1.64-.98,3.02-2.95,4.13-9.56,6.61-14.56,10.03-14.99,10.24-.61.32-1.21.48-1.8.48h-.32c-1.55,0-2.79-.83-3.7-2.49-.23-.59-.35-1.11-.35-1.56v-.24c0-1.59.97-2.96,2.9-4.1,5.77-3.97,8.77-6.04,9.01-6.22-.04-.05-2.21-1.3-6.51-3.73-2.16-1.16-3.42-1.93-3.78-2.31-.84-.91-1.26-1.88-1.26-2.92v-.16c0-1.47.74-2.68,2.23-3.65.66-.32,1.28-.48,1.85-.48Z"/>
    </g>
    <g>
      <path class="cls-2" d="m353.42,71.51c1.41,0,2.58.65,3.51,1.96.45.73.67,1.49.67,2.28,0,1.64-.95,3.01-2.84,4.1-5.86,4.02-8.88,6.11-9.06,6.27v.03c.89.54,4.14,2.39,9.73,5.55,1.22.97,1.82,2.14,1.82,3.51,0,1.47-.7,2.66-2.09,3.59-.7.38-1.4.56-2.12.56-.91,0-2.03-.43-3.35-1.29-8.24-4.63-13.1-7.38-14.58-8.26-1.07-.98-1.61-2.1-1.61-3.35,0-1.66.92-3.02,2.76-4.08,10.06-6.97,15.16-10.45,15.28-10.45.64-.29,1.27-.43,1.88-.43Z"/>
      <path class="cls-2" d="m370.09,71.51c1.54,0,2.78.78,3.73,2.33.29.68.43,1.32.43,1.93,0,.41-.32,1.92-.97,4.53l-7.53,30.88c-.14.5-.62,1.13-1.42,1.88-.82.59-1.68.88-2.57.88-1.54,0-2.78-.77-3.73-2.31-.29-.7-.43-1.35-.43-1.96,0-.45.38-2.16,1.15-5.15,4.61-19.05,7.08-29.18,7.4-30.37.16-.46.6-1.04,1.31-1.72.8-.63,1.68-.94,2.63-.94Z"/>
      <path class="cls-2" d="m378.67,86.1h.24c.88,0,2.06.48,3.54,1.45,8.99,5.04,13.77,7.76,14.34,8.15,1.04.95,1.55,1.99,1.55,3.14v.27c0,1.64-.98,3.02-2.95,4.13-9.56,6.61-14.56,10.03-14.99,10.24-.61.32-1.21.48-1.8.48h-.32c-1.55,0-2.79-.83-3.7-2.49-.23-.59-.35-1.11-.35-1.56v-.24c0-1.59.97-2.96,2.9-4.1,5.77-3.97,8.77-6.04,9.01-6.22-.04-.05-2.21-1.3-6.51-3.73-2.16-1.16-3.42-1.93-3.78-2.31-.84-.91-1.26-1.88-1.26-2.92v-.16c0-1.47.74-2.68,2.23-3.65.66-.32,1.28-.48,1.85-.48Z"/>
    </g>
    <g>
      <path class="cls-2" d="m178.28,7.7c1.41,0,2.58.65,3.51,1.96.45.73.67,1.49.67,2.28,0,1.64-.95,3.01-2.84,4.1-5.86,4.02-8.88,6.11-9.06,6.27v.03c.89.54,4.14,2.39,9.73,5.55,1.22.97,1.82,2.14,1.82,3.51,0,1.47-.7,2.66-2.09,3.59-.7.38-1.4.56-2.12.56-.91,0-2.03-.43-3.35-1.29-8.24-4.63-13.1-7.38-14.58-8.26-1.07-.98-1.61-2.1-1.61-3.35,0-1.66.92-3.02,2.76-4.08,10.06-6.97,15.16-10.45,15.28-10.45.64-.29,1.27-.43,1.88-.43Z"/>
      <path class="cls-2" d="m194.96,7.7c1.54,0,2.78.78,3.73,2.33.29.68.43,1.32.43,1.93,0,.41-.32,1.92-.97,4.53l-7.53,30.88c-.14.5-.62,1.13-1.42,1.88-.82.59-1.68.88-2.57.88-1.54,0-2.78-.77-3.73-2.31-.29-.7-.43-1.35-.43-1.96,0-.45.38-2.16,1.15-5.15,4.61-19.05,7.08-29.18,7.4-30.37.16-.46.6-1.04,1.31-1.72.8-.63,1.68-.94,2.63-.94Z"/>
      <path class="cls-2" d="m203.54,22.28h.24c.88,0,2.06.48,3.54,1.45,8.99,5.04,13.77,7.76,14.34,8.15,1.04.95,1.55,1.99,1.55,3.14v.27c0,1.64-.98,3.02-2.95,4.13-9.56,6.61-14.56,10.03-14.99,10.24-.61.32-1.21.48-1.8.48h-.32c-1.55,0-2.79-.83-3.7-2.49-.23-.59-.35-1.11-.35-1.56v-.24c0-1.59.97-2.96,2.9-4.1,5.77-3.97,8.77-6.04,9.01-6.22-.04-.05-2.21-1.3-6.51-3.73-2.16-1.16-3.42-1.93-3.78-2.31-.84-.91-1.26-1.88-1.26-2.92v-.16c0-1.47.74-2.68,2.23-3.65.66-.32,1.28-.48,1.85-.48Z"/>
    </g>
    <g>
      <path class="cls-2" d="m69.52,7.7c1.41,0,2.58.65,3.51,1.96.45.73.67,1.49.67,2.28,0,1.64-.95,3.01-2.84,4.1-5.86,4.02-8.88,6.11-9.06,6.27v.03c.89.54,4.14,2.39,9.73,5.55,1.22.97,1.82,2.14,1.82,3.51,0,1.47-.7,2.66-2.09,3.59-.7.38-1.4.56-2.12.56-.91,0-2.03-.43-3.35-1.29-8.24-4.63-13.1-7.38-14.58-8.26-1.07-.98-1.61-2.1-1.61-3.35,0-1.66.92-3.02,2.76-4.08,10.06-6.97,15.16-10.45,15.28-10.45.64-.29,1.27-.43,1.88-.43Z"/>
      <path class="cls-2" d="m86.2,7.7c1.54,0,2.78.78,3.73,2.33.29.68.43,1.32.43,1.93,0,.41-.32,1.92-.97,4.53l-7.53,30.88c-.14.5-.62,1.13-1.42,1.88-.82.59-1.68.88-2.57.88-1.54,0-2.78-.77-3.73-2.31-.29-.7-.43-1.35-.43-1.96,0-.45.38-2.16,1.15-5.15,4.61-19.05,7.08-29.18,7.4-30.37.16-.46.6-1.04,1.31-1.72.8-.63,1.68-.94,2.63-.94Z"/>
      <path class="cls-2" d="m94.78,22.28h.24c.88,0,2.06.48,3.54,1.45,8.99,5.04,13.77,7.76,14.34,8.15,1.04.95,1.55,1.99,1.55,3.14v.27c0,1.64-.98,3.02-2.95,4.13-9.56,6.61-14.56,10.03-14.99,10.24-.61.32-1.21.48-1.8.48h-.32c-1.55,0-2.79-.83-3.7-2.49-.23-.59-.35-1.11-.35-1.56v-.24c0-1.59.97-2.96,2.9-4.1,5.77-3.97,8.77-6.04,9.01-6.22-.04-.05-2.21-1.3-6.51-3.73-2.16-1.16-3.42-1.93-3.78-2.31-.84-.91-1.26-1.88-1.26-2.92v-.16c0-1.47.74-2.68,2.23-3.65.66-.32,1.28-.48,1.85-.48Z"/>
    </g>
    <g>
      <path class="cls-2" d="m291.97,7.7c1.41,0,2.58.65,3.51,1.96.45.73.67,1.49.67,2.28,0,1.64-.95,3.01-2.84,4.1-5.86,4.02-8.88,6.11-9.06,6.27v.03c.89.54,4.14,2.39,9.73,5.55,1.22.97,1.82,2.14,1.82,3.51,0,1.47-.7,2.66-2.09,3.59-.7.38-1.4.56-2.12.56-.91,0-2.03-.43-3.35-1.29-8.24-4.63-13.1-7.38-14.58-8.26-1.07-.98-1.61-2.1-1.61-3.35,0-1.66.92-3.02,2.76-4.08,10.06-6.97,15.16-10.45,15.28-10.45.64-.29,1.27-.43,1.88-.43Z"/>
      <path class="cls-2" d="m308.64,7.7c1.54,0,2.78.78,3.73,2.33.29.68.43,1.32.43,1.93,0,.41-.32,1.92-.97,4.53l-7.53,30.88c-.14.5-.62,1.13-1.42,1.88-.82.59-1.68.88-2.57.88-1.54,0-2.78-.77-3.73-2.31-.29-.7-.43-1.35-.43-1.96,0-.45.38-2.16,1.15-5.15,4.61-19.05,7.08-29.18,7.4-30.37.16-.46.6-1.04,1.31-1.72.8-.63,1.68-.94,2.63-.94Z"/>
      <path class="cls-2" d="m317.22,22.28h.24c.88,0,2.06.48,3.54,1.45,8.99,5.04,13.77,7.76,14.34,8.15,1.04.95,1.55,1.99,1.55,3.14v.27c0,1.64-.98,3.02-2.95,4.13-9.56,6.61-14.56,10.03-14.99,10.24-.61.32-1.21.48-1.8.48h-.32c-1.55,0-2.79-.83-3.7-2.49-.23-.59-.35-1.11-.35-1.56v-.24c0-1.59.97-2.96,2.9-4.1,5.77-3.97,8.77-6.04,9.01-6.22-.04-.05-2.21-1.3-6.51-3.73-2.16-1.16-3.42-1.93-3.78-2.31-.84-.91-1.26-1.88-1.26-2.92v-.16c0-1.47.74-2.68,2.23-3.65.66-.32,1.28-.48,1.85-.48Z"/>
    </g>
    <g>
      <path class="cls-2" d="m399.13,7.7c1.41,0,2.58.65,3.51,1.96.45.73.67,1.49.67,2.28,0,1.64-.95,3.01-2.84,4.1-5.86,4.02-8.88,6.11-9.06,6.27v.03c.89.54,4.14,2.39,9.73,5.55,1.22.97,1.82,2.14,1.82,3.51,0,1.47-.7,2.66-2.09,3.59-.7.38-1.4.56-2.12.56-.91,0-2.03-.43-3.35-1.29-8.24-4.63-13.1-7.38-14.58-8.26-1.07-.98-1.61-2.1-1.61-3.35,0-1.66.92-3.02,2.76-4.08,10.06-6.97,15.16-10.45,15.28-10.45.64-.29,1.27-.43,1.88-.43Z"/>
      <path class="cls-2" d="m415.8,7.7c1.54,0,2.78.78,3.73,2.33.29.68.43,1.32.43,1.93,0,.41-.32,1.92-.97,4.53l-7.53,30.88c-.14.5-.62,1.13-1.42,1.88-.82.59-1.68.88-2.57.88-1.54,0-2.78-.77-3.73-2.31-.29-.7-.43-1.35-.43-1.96,0-.45.38-2.16,1.15-5.15,4.61-19.05,7.08-29.18,7.4-30.37.16-.46.6-1.04,1.31-1.72.8-.63,1.68-.94,2.63-.94Z"/>
      <path class="cls-2" d="m424.38,22.28h.24c.88,0,2.06.48,3.54,1.45,8.99,5.04,13.77,7.76,14.34,8.15,1.04.95,1.55,1.99,1.55,3.14v.27c0,1.64-.98,3.02-2.95,4.13-9.56,6.61-14.56,10.03-14.99,10.24-.61.32-1.21.48-1.8.48h-.32c-1.55,0-2.79-.83-3.7-2.49-.23-.59-.35-1.11-.35-1.56v-.24c0-1.59.97-2.96,2.9-4.1,5.77-3.97,8.77-6.04,9.01-6.22-.04-.05-2.21-1.3-6.51-3.73-2.16-1.16-3.42-1.93-3.78-2.31-.84-.91-1.26-1.88-1.26-2.92v-.16c0-1.47.74-2.68,2.23-3.65.66-.32,1.28-.48,1.85-.48Z"/>
    </g>
  </g>
  <g>
    <g>
      <path class="cls-9" d="m139.21,374.68s8.04-8.62,15.18-16.28c6.94-7.43,16.65-11.65,26.81-11.65h142.43c10.91,0,21.26,4.86,28.22,13.26l16.55,19.94s-152.79,49.45-229.2-5.27Z"/>
      <g>
        <path class="cls-3" d="m305.52,369.65c-22.49-12.99-16.58-72.54-16.58-72.54l-34.14,2.2v-2.19l-3.65,1.1-3.65-1.1v2.19l-34.14-2.2s6.22,60.11-16.58,72.54c-22.8,12.43-162.88,15.95-148.38,154.81h405.5c3.07-138.76-126.83-142.36-148.38-154.81Z"/>
        <path class="cls-7" d="m199.74,367.64c12.24,8.18,50.55,28.04,103.75.73-7.21-5.24-11.14-15.68-13.21-26.99l-77.65-3.82c-1.78,12.23-5.5,24.01-12.89,30.08Z"/>
      </g>
      <g>
        <path class="cls-4" d="m326.36,375.39c-18.56,16.55-45.83,27.03-76.27,27.03s-57.71-10.47-76.27-27.03c-44.86,12.07-132.98,36.85-121.1,150.52h394.74c11.88-113.67-76.24-138.45-121.1-150.52Z"/>
        <polygon class="cls-10" points="330.08 377.21 328.43 377.21 298.37 525.91 326.63 525.92 330.08 377.21"/>
        <polygon class="cls-10" points="166.58 377.21 172.07 377.21 202.12 525.91 173.87 525.92 166.58 377.21"/>
        <g>
          <g>
            <path class="cls-8" d="m167.74,370.16l23.29,155.88H42.32s-16.13-132.59,125.42-155.88Z"/>
            <path class="cls-6" d="m167.74,370.16l23.29,155.88-62.71-98.55,25.09-34.04-32.25-12.54s21.5-9.85,46.59-10.75Z"/>
          </g>
          <g>
            <path class="cls-8" d="m331.14,370.16l-23.29,155.88h148.72s16.13-132.59-125.42-155.88Z"/>
            <path class="cls-6" d="m331.14,370.16l-23.29,155.88,62.71-98.55-25.09-34.04,32.25-12.54s-21.5-9.85-46.59-10.75Z"/>
          </g>
        </g>
      </g>
      <path class="cls-6" d="m178.47,346.86s-17.84,12.09-4.46,65.28l-17.92-25.45-34.94-5.77s38.18-35.42,57.32-34.06Z"/>
      <path class="cls-6" d="m325.58,346.8s12.87,10.76-.51,63.95l22.89-24.12,29.76-5.71s-33.01-35.48-52.14-34.12Z"/>
    </g>
    <g>
      <path class="cls-3" d="m178.42,254.35c-7.4-20.84-24.92-16.01-26.56-15.51-1.72.18-19.83,2.62-16.7,24.33,3.15,21.84,17.11,33.67,30.19,30.2,13.47-1.94,20.51-18.06,13.07-39.02Z"/>
      <path class="cls-3" d="m326.16,254.35c7.4-20.84,24.92-16.01,26.56-15.51,1.72.18,19.83,2.62,16.7,24.33-3.15,21.84-17.11,33.67-30.19,30.2-13.47-1.94-20.51-18.06-13.07-39.02Z"/>
      <path class="cls-3" d="m160.47,222.78c9.17-91.36,85.67-86.24,92.89-85.55,7.22-.69,83.72-5.81,92.89,85.55,9.22,91.9-35.87,151.92-92.89,148.62-57.02,3.3-102.11-56.72-92.89-148.62Z"/>
    </g>
    <g>
      <path class="cls-11" d="m157.29,240.14s-4.93,120.05,73.03,133.49c77.96,13.44,126.32-45.69,119.41-139.76l-6.63-.6s-9.65,94.67-33.33,95.57c-23.69.9,11.35-29.56-34.05-31.36-45.4-1.79-67.86-15.53-71.55,19.26-2.47,23.29-34.05-16.57-37.99-78.39-3.95-61.82-8.88,1.79-8.88,1.79Z"/>
      <path class="cls-11" d="m169.91,265.94c-1.79-8.54-3.11-17.78-3.74-27.59-3.95-61.82-8.88,1.79-8.88,1.79,0,0-.53,13.03,1.53,30.98,3.71-1.71,7.4-3.45,11.09-5.19Z"/>
    </g>
    <g>
      <path class="cls-7" d="m255.86,233.1c4.65,16.64,6.86,33.8,8.12,50.99,0,0,.09,1.4.09,1.4-4.3,1.98-8.69,3.8-13.13,5.44-4.89,1.73-4.93,1.9-.63-1.19,3.56-2.49,7.21-4.86,10.92-7.09,0,0-1,1.9-1,1.9-2.91-16.99-4.89-34.18-4.37-51.45h0Z"/>
      <path class="cls-11" d="m325.51,233.8c-9.98-1.94-19.45-5.23-29.27-4.95-6.2.09-12.46,1.94-18.71,3.14,1.8-11.32,13.62-19.1,24.82-17.95,11.15,1,21.05,8.8,23.17,19.76h0Z"/>
      <path class="cls-11" d="m234.86,233.8c-9.97-1.94-19.45-5.23-29.27-4.95-6.2.09-12.46,1.94-18.71,3.14,1.8-11.32,13.62-19.1,24.82-17.95,11.15,1,21.05,8.8,23.17,19.76h0Z"/>
      <circle class="cls-11" cx="301.52" cy="246.88" r="6.82"/>
      <path class="cls-3" d="m216.07,311.83c1.95-5.55,6.82-9.58,12.65-10.38,4.85-.67,10.87-1.11,16.5-.46,12.13,1.4,47.62,1.66,50.04,10.34.43,1.55.59,3.16.56,4.75-.15,7.66-4.63,14.57-11.34,18.25l-19.12,10.48c-4.61,2.53-10.18,2.59-14.85.17l-26.82-13.91c-6.98-3.62-10.23-11.83-7.62-19.25h0Z"/>
      <path class="cls-1" d="m230.8,315.2c18.69,17.38,34.82,17.98,50.95,1.8l-50.95-1.8Z"/>
      <circle class="cls-11" cx="208.82" cy="246.88" r="6.82"/>
      <path class="cls-7" d="m282.16,256.87c12.34,8.39,22.4,10.44,35.05,1.33-8.71,13.77-26.7,11.52-35.05-1.33h0Z"/>
      <path class="cls-7" d="m191.04,256.87c12.34,8.39,22.4,10.44,35.05,1.33-8.71,13.77-26.7,11.52-35.05-1.33h0Z"/>
    </g>
    <g>
      <path class="cls-11" d="m197.66,160.61s38.49,44.79,93.75,36.73l-12.83-16.13s33.55,14.33,89.81.9c0,0,3.95-55.55-91.78-68.09,0,0,45.4,3.58,76.98,20.61,0,0-92.77-87.8-168.76,0,0,0-43.42.9-45.4,44.79-1.97,43.9,9.87,60.02,9.87,60.02,0,0,11.06-4.37,12.83,8.06,2.96,15.23-4.05,40.19,6.8,61.69l-1.28-48.5c-.17-6.44.17-12.87,1.02-19.27.83-6.23,2.17-16.7,4.31-34.25,0,0,28.62-5.38,24.67-46.59Z"/>
      <path class="cls-11" d="m354.57,174.04s12.83,98.55-17.76,137.97l-8.38-6.92s24.02-58.57,4.43-124.78l21.71-6.27Z"/>
    </g>
    <path class="cls-5" d="m258.3,242.62c3.32.4,4.38,3.38,4.38,3.38l2.42,6.74c7.02,19.54,15.45,21.34,37,20.97,8.64-.15,17.16-1.26,23.83-3.61,6.68-2.35,8.03-8.93,8.03-8.93,0,0,3.46-12,3.66-12.97.2-.97,3.12-4.14,3.12-4.14l.13-11.98s-23-2.73-39.49-3.46c-20.96-.92-34.49,4.96-42.79,5.76-4.85.09-6.82.23-13.48-1.54-5.9-1.57-19.06-5.59-35.57-5.23-16.51.36-39.56,2.59-39.56,2.59l-.13,11.98s2.84,3.24,3.02,4.21c.18.97,3.38,13.04,3.38,13.04,0,0,1.21,6.61,7.83,9.1,6.62,2.49,15.12,3.8,23.75,4.13,8.63.34,19.63.58,25.68-3.35,6.06-3.93,9.19-10.12,11.76-16.81l2.57-6.69s1.12-2.95,4.45-3.28c2.59-.25,3.4-.25,6.01.07Zm73.26,9.45c-1.53,11.66-3.6,13.76-9.45,15.93-5.84,2.17-31.2,4.8-42.21-.28,0,0-7.01-2.5-10.66-14.15-3.65-11.66-2.31-17.09,5.45-19.12,0,0,11.42-2.9,24.21-2.94,12.79-.04,25.19,1.18,28.62,3.22,3.43,2.03,5.57,5.69,4.03,17.35Zm-148.31-18.92c3.48-1.96,15.89-2.91,28.68-2.59,12.79.32,24.14,3.47,24.14,3.47,7.72,2.2,8.93,7.66,5.03,19.23-3.9,11.57-10.96,13.92-10.96,13.92-11.12,4.84-36.41,1.66-42.21-.64-5.8-2.3-7.82-4.44-9.1-16.13-1.28-11.69.93-15.3,4.41-17.26Zm153.63,9c-.62,0-1.11-.49-1.11-1.07s.51-1.05,1.13-1.05,1.11.49,1.11,1.07-.51,1.05-1.13,1.05Zm-164.25-2.85c0-.58.51-1.05,1.13-1.05s1.11.49,1.11,1.07-.51,1.05-1.13,1.05-1.11-.49-1.11-1.07Zm164.31-2.29c-.62,0-1.11-.49-1.11-1.07s.51-1.05,1.13-1.05,1.11.49,1.11,1.07-.51,1.05-1.13,1.05Zm-164.25-2.85c0-.58.51-1.05,1.13-1.05s1.11.49,1.11,1.07-.51,1.05-1.13,1.05-1.11-.49-1.11-1.07Z"/>
    <path class="cls-11" d="m167.27,106.77c.21,7.49,2.75,15.01,7.43,20.74,1.13,1.4,2.48,2.6,3.9,3.66,2.85,2.2,5.55,4.57,8.38,6.84,1.53,1.28,3.09,2.45,4.55,3.91,0,0-.2.6-.2.6-5.28.45-10.67-1.35-14.81-4.61-5.41-4.97-9.04-11.97-10.2-19.18-.6-4.05-.58-8.13.33-12.04,0,0,.62.09.62.09h0Z"/>
    <path class="cls-11" d="m183.28,101.21c-2.7,6.87-3.52,14.47-1.58,21.57.45,1.7,1.24,3.28,2.09,4.77,1.74,3.05,3.3,6.17,5.06,9.23.93,1.72,1.95,3.34,2.78,5.19,0,0-.4.49-.4.49-6.02-1.68-11.28-6.47-13.19-12.49-1.79-5.97-2.1-12.42-.4-18.4,1.11-3.87,2.75-7.51,5.1-10.68l.54.33h0Z"/>
    <g>
      <path class="cls-1" d="m231.05,464.26c1.41,0,2.58.65,3.51,1.96.45.73.67,1.49.67,2.28,0,1.64-.95,3.01-2.84,4.1-5.86,4.02-8.88,6.11-9.06,6.27v.03c.89.54,4.14,2.39,9.73,5.55,1.22.97,1.82,2.14,1.82,3.51,0,1.47-.7,2.66-2.09,3.59-.7.38-1.4.56-2.12.56-.91,0-2.03-.43-3.35-1.29-8.24-4.63-13.1-7.38-14.58-8.26-1.07-.98-1.61-2.1-1.61-3.35,0-1.66.92-3.02,2.76-4.08,10.06-6.97,15.16-10.45,15.28-10.45.64-.29,1.27-.43,1.88-.43Z"/>
      <path class="cls-1" d="m247.73,464.26c1.54,0,2.78.78,3.73,2.33.29.68.43,1.32.43,1.93,0,.41-.32,1.92-.97,4.53l-7.53,30.88c-.14.5-.62,1.13-1.42,1.88-.82.59-1.68.88-2.57.88-1.54,0-2.78-.77-3.73-2.31-.29-.7-.43-1.35-.43-1.96,0-.45.38-2.16,1.15-5.15,4.61-19.05,7.08-29.18,7.4-30.37.16-.46.6-1.04,1.31-1.72.8-.63,1.68-.94,2.63-.94Z"/>
      <path class="cls-1" d="m256.3,478.84h.24c.88,0,2.06.48,3.54,1.45,8.99,5.04,13.77,7.76,14.34,8.15,1.04.95,1.55,1.99,1.55,3.14v.27c0,1.64-.98,3.02-2.95,4.13-9.56,6.61-14.56,10.03-14.99,10.24-.61.32-1.21.48-1.8.48h-.32c-1.55,0-2.79-.83-3.7-2.49-.23-.59-.35-1.11-.35-1.56v-.24c0-1.59.97-2.96,2.9-4.1,5.77-3.97,8.77-6.04,9.01-6.22-.04-.05-2.21-1.3-6.51-3.73-2.16-1.16-3.42-1.93-3.78-2.31-.84-.91-1.26-1.88-1.26-2.92v-.16c0-1.47.74-2.68,2.23-3.65.66-.32,1.28-.48,1.85-.48Z"/>
    </g>
    <path class="cls-11" d="m157.23,246.88l.64,72.24c.16,17.51,8.25,34,22,44.84l4.57,3.6c9.24,7.28,20.47,11.57,32.21,12.29l27.23,1.67c8.25.51,16.53.54,24.79.1l32.78-1.74c13.98-.74,27.22-6.54,37.25-16.31h0c11.01-10.73,17.29-25.41,17.44-40.79l.88-89.69-8.53,32.88s-17.69,54.4-18.42,55.17-42.35,29.11-42.35,29.11l-48.3-3.51-23.8-5.43-24.6-17.61-16.11-17.36-17.69-59.46Z"/>
    <path class="cls-11" d="m254.45,295.82c14.23-4.43,33.54-1.59,44.68,8.85,3.9,3.76,6.91,9.49,5.88,14.95-2.84-4.54-6.31-7.18-10.18-9.34-12.73-6.62-26.96-8.81-40.38-14.47h0Z"/>
    <path class="cls-11" d="m262.11,299.71c-14.56,1.14-28.48-.73-42.82.43-6.25.71-11.9,1.64-17.28,6.24.96-5.87,6.36-10.3,11.62-12.52,14.81-6.11,35.26-2.75,48.48,5.86h0Z"/>
  </g>
</svg>